<?xml version="1.0" encoding="UTF-8" standalone="no"?>
<!DOCTYPE svg PUBLIC "-//W3C//DTD SVG 1.1//EN"
 "http://www.w3.org/Graphics/SVG/1.1/DTD/svg11.dtd">
<!-- Generated by graphviz version 14.1.1 (20251213.1925)
 -->
<!-- Title: PatternPatcher Pages: 1 -->
<svg width="895pt" height="793pt"
 viewBox="0.00 0.00 895.00 793.00" xmlns="http://www.w3.org/2000/svg" xmlns:xlink="http://www.w3.org/1999/xlink">
<g id="graph0" class="graph" transform="scale(1 1) rotate(0) translate(28.8 764.55)">
<title>PatternPatcher</title>
<polygon fill="white" stroke="none" points="-28.8,28.8 -28.8,-764.55 865.88,-764.55 865.88,28.8 -28.8,28.8"/>
<text xml:space="preserve" text-anchor="middle" x="418.54" y="-719.4" font-family="Arial BoldMT" font-size="13.00">PatternPatcher domain model</text>
<!-- m_Lexeme -->
<g id="node1" class="node">
<title>m_Lexeme</title>
<path fill="none" stroke="black" d="M185,-315.42C185,-315.42 305.08,-315.42 305.08,-315.42 311.08,-315.42 317.08,-321.42 317.08,-327.42 317.08,-327.42 317.08,-417.32 317.08,-417.32 317.08,-423.32 311.08,-429.32 305.08,-429.32 305.08,-429.32 185,-429.32 185,-429.32 179,-429.32 173,-423.32 173,-417.32 173,-417.32 173,-327.42 173,-327.42 173,-321.42 179,-315.42 185,-315.42"/>
<text xml:space="preserve" text-anchor="start" x="223.92" y="-415.27" font-family="Arial BoldMT" font-size="11.00">Lexeme</text>
<polyline fill="none" stroke="black" points="173,-410.12 317.08,-410.12"/>
<text xml:space="preserve" text-anchor="start" x="180.04" y="-396.02" font-family="ArialMT" font-size="10.00">fingerprint </text>
<text xml:space="preserve" text-anchor="start" x="225.79" y="-396.02" font-family="Arial ItalicMT" font-size="10.00" fill="#999999">string ∗ U</text>
<text xml:space="preserve" text-anchor="start" x="180.04" y="-381.27" font-family="ArialMT" font-size="10.00">metadata </text>
<text xml:space="preserve" text-anchor="start" x="223.54" y="-381.27" font-family="Arial ItalicMT" font-size="10.00" fill="#999999">jsonb</text>
<text xml:space="preserve" text-anchor="start" x="180.04" y="-368.02" font-family="ArialMT" font-size="10.00">normalized_text </text>
<text xml:space="preserve" text-anchor="start" x="252.04" y="-368.02" font-family="Arial ItalicMT" font-size="10.00" fill="#999999">text ∗</text>
<text xml:space="preserve" text-anchor="start" x="180.04" y="-353.27" font-family="ArialMT" font-size="10.00">process_status </text>
<text xml:space="preserve" text-anchor="start" x="249.79" y="-353.27" font-family="Arial ItalicMT" font-size="10.00" fill="#999999">string ∗</text>
<text xml:space="preserve" text-anchor="start" x="180.04" y="-338.52" font-family="ArialMT" font-size="10.00">processed_at </text>
<text xml:space="preserve" text-anchor="start" x="241.54" y="-338.52" font-family="Arial ItalicMT" font-size="10.00" fill="#999999">datetime (6,0)</text>
<text xml:space="preserve" text-anchor="start" x="180.04" y="-325.27" font-family="ArialMT" font-size="10.00">source_text </text>
<text xml:space="preserve" text-anchor="start" x="234.04" y="-325.27" font-family="Arial ItalicMT" font-size="10.00" fill="#999999">text ∗</text>
</g>
<!-- m_LexemeProcessResult -->
<g id="node2" class="node">
<title>m_LexemeProcessResult</title>
<path fill="none" stroke="black" d="M127,-169.02C127,-169.02 247.08,-169.02 247.08,-169.02 253.08,-169.02 259.08,-175.02 259.08,-181.02 259.08,-181.02 259.08,-214.92 259.08,-214.92 259.08,-220.92 253.08,-226.92 247.08,-226.92 247.08,-226.92 127,-226.92 127,-226.92 121,-226.92 115,-220.92 115,-214.92 115,-214.92 115,-181.02 115,-181.02 115,-175.02 121,-169.02 127,-169.02"/>
<text xml:space="preserve" text-anchor="start" x="131.04" y="-212.87" font-family="Arial BoldMT" font-size="11.00">LexemeProcessResult</text>
<polyline fill="none" stroke="black" points="115,-207.72 259.08,-207.72"/>
<text xml:space="preserve" text-anchor="start" x="122.04" y="-193.62" font-family="ArialMT" font-size="10.00">metadata </text>
<text xml:space="preserve" text-anchor="start" x="165.54" y="-193.62" font-family="Arial ItalicMT" font-size="10.00" fill="#999999">jsonb ∗</text>
<text xml:space="preserve" text-anchor="start" x="122.04" y="-178.87" font-family="ArialMT" font-size="10.00">output_json </text>
<text xml:space="preserve" text-anchor="start" x="175.29" y="-178.87" font-family="Arial ItalicMT" font-size="10.00" fill="#999999">jsonb ∗</text>
</g>
<!-- m_Lexeme&#45;&gt;m_LexemeProcessResult -->
<g id="edge14" class="edge">
<title>m_Lexeme&#45;&gt;m_LexemeProcessResult</title>
<path fill="none" stroke="black" d="M226.21,-315.4C216.29,-285.91 204.54,-251 196.52,-227.16"/>
</g>
<!-- m_Occurrence -->
<g id="node5" class="node">
<title>m_Occurrence</title>
<path fill="none" stroke="black" d="M358,-123.4C358,-123.4 478.08,-123.4 478.08,-123.4 484.08,-123.4 490.08,-129.4 490.08,-135.4 490.08,-135.4 490.08,-260.55 490.08,-260.55 490.08,-266.55 484.08,-272.55 478.08,-272.55 478.08,-272.55 358,-272.55 358,-272.55 352,-272.55 346,-266.55 346,-260.55 346,-260.55 346,-135.4 346,-135.4 346,-129.4 352,-123.4 358,-123.4"/>
<text xml:space="preserve" text-anchor="start" x="388.29" y="-258.5" font-family="Arial BoldMT" font-size="11.00">Occurrence</text>
<polyline fill="none" stroke="black" points="346,-253.35 490.08,-253.35"/>
<text xml:space="preserve" text-anchor="start" x="353.04" y="-239.25" font-family="ArialMT" font-size="10.00">byte_end </text>
<text xml:space="preserve" text-anchor="start" x="395.79" y="-239.25" font-family="Arial ItalicMT" font-size="10.00" fill="#999999">integer</text>
<text xml:space="preserve" text-anchor="start" x="353.04" y="-226" font-family="ArialMT" font-size="10.00">byte_start </text>
<text xml:space="preserve" text-anchor="start" x="399.54" y="-226" font-family="Arial ItalicMT" font-size="10.00" fill="#999999">integer</text>
<text xml:space="preserve" text-anchor="start" x="353.04" y="-212.75" font-family="ArialMT" font-size="10.00">context </text>
<text xml:space="preserve" text-anchor="start" x="388.29" y="-212.75" font-family="Arial ItalicMT" font-size="10.00" fill="#999999">text</text>
<text xml:space="preserve" text-anchor="start" x="353.04" y="-199.5" font-family="ArialMT" font-size="10.00">line_at </text>
<text xml:space="preserve" text-anchor="start" x="384.54" y="-199.5" font-family="Arial ItalicMT" font-size="10.00" fill="#999999">integer</text>
<text xml:space="preserve" text-anchor="start" x="353.04" y="-186.25" font-family="ArialMT" font-size="10.00">line_char_end </text>
<text xml:space="preserve" text-anchor="start" x="416.04" y="-186.25" font-family="Arial ItalicMT" font-size="10.00" fill="#999999">integer</text>
<text xml:space="preserve" text-anchor="start" x="353.04" y="-173" font-family="ArialMT" font-size="10.00">line_char_start </text>
<text xml:space="preserve" text-anchor="start" x="419.79" y="-173" font-family="Arial ItalicMT" font-size="10.00" fill="#999999">integer</text>
<text xml:space="preserve" text-anchor="start" x="353.04" y="-159.75" font-family="ArialMT" font-size="10.00">match_fingerprint </text>
<text xml:space="preserve" text-anchor="start" x="431.04" y="-159.75" font-family="Arial ItalicMT" font-size="10.00" fill="#999999">string ∗</text>
<text xml:space="preserve" text-anchor="start" x="353.04" y="-145" font-family="ArialMT" font-size="10.00">matched_text </text>
<text xml:space="preserve" text-anchor="start" x="415.29" y="-145" font-family="Arial ItalicMT" font-size="10.00" fill="#999999">text</text>
<text xml:space="preserve" text-anchor="start" x="353.04" y="-131.75" font-family="ArialMT" font-size="10.00">status </text>
<text xml:space="preserve" text-anchor="start" x="383.04" y="-131.75" font-family="Arial ItalicMT" font-size="10.00" fill="#999999">string</text>
</g>
<!-- m_Lexeme&#45;&gt;m_Occurrence -->
<g id="edge12" class="edge">
<title>m_Lexeme&#45;&gt;m_Occurrence</title>
<path fill="none" stroke="black" d="M301.21,-315.4C313.08,-303.57 325.83,-290.86 338.39,-278.35"/>
<polygon fill="black" stroke="black" points="340.53,-280.66 344.68,-272.08 336.08,-276.2 340.53,-280.66"/>
</g>
<!-- m_LexemeProcessor -->
<g id="node3" class="node">
<title>m_LexemeProcessor</title>
<path fill="none" stroke="black" d="M12,-472.2C12,-472.2 132.08,-472.2 132.08,-472.2 138.08,-472.2 144.08,-478.2 144.08,-484.2 144.08,-484.2 144.08,-577.1 144.08,-577.1 144.08,-583.1 138.08,-589.1 132.08,-589.1 132.08,-589.1 12,-589.1 12,-589.1 6,-589.1 0,-583.1 0,-577.1 0,-577.1 0,-484.2 0,-484.2 0,-478.2 6,-472.2 12,-472.2"/>
<text xml:space="preserve" text-anchor="start" x="26.54" y="-575.05" font-family="Arial BoldMT" font-size="11.00">LexemeProcessor</text>
<polyline fill="none" stroke="black" points="0,-569.9 144.08,-569.9"/>
<text xml:space="preserve" text-anchor="start" x="7.04" y="-555.8" font-family="ArialMT" font-size="10.00">default_config </text>
<text xml:space="preserve" text-anchor="start" x="70.79" y="-555.8" font-family="Arial ItalicMT" font-size="10.00" fill="#999999">jsonb ∗</text>
<text xml:space="preserve" text-anchor="start" x="7.04" y="-541.05" font-family="ArialMT" font-size="10.00">enabled </text>
<text xml:space="preserve" text-anchor="start" x="43.79" y="-541.05" font-family="Arial ItalicMT" font-size="10.00" fill="#999999">boolean ∗</text>
<text xml:space="preserve" text-anchor="start" x="7.04" y="-526.3" font-family="ArialMT" font-size="10.00">entrypoint </text>
<text xml:space="preserve" text-anchor="start" x="52.79" y="-526.3" font-family="Arial ItalicMT" font-size="10.00" fill="#999999">string ∗</text>
<text xml:space="preserve" text-anchor="start" x="7.04" y="-511.55" font-family="ArialMT" font-size="10.00">key </text>
<text xml:space="preserve" text-anchor="start" x="25.79" y="-511.55" font-family="Arial ItalicMT" font-size="10.00" fill="#999999">string ∗ U</text>
<text xml:space="preserve" text-anchor="start" x="7.04" y="-496.8" font-family="ArialMT" font-size="10.00">name </text>
<text xml:space="preserve" text-anchor="start" x="34.04" y="-496.8" font-family="Arial ItalicMT" font-size="10.00" fill="#999999">string ∗</text>
<text xml:space="preserve" text-anchor="start" x="7.04" y="-482.05" font-family="ArialMT" font-size="10.00">output_schema </text>
<text xml:space="preserve" text-anchor="start" x="76.79" y="-482.05" font-family="Arial ItalicMT" font-size="10.00" fill="#999999">jsonb ∗</text>
</g>
<!-- m_ProcessRun -->
<g id="node7" class="node">
<title>m_ProcessRun</title>
<path fill="none" stroke="black" d="M12,-323.55C12,-323.55 132.08,-323.55 132.08,-323.55 138.08,-323.55 144.08,-329.55 144.08,-335.55 144.08,-335.55 144.08,-409.2 144.08,-409.2 144.08,-415.2 138.08,-421.2 132.08,-421.2 132.08,-421.2 12,-421.2 12,-421.2 6,-421.2 0,-415.2 0,-409.2 0,-409.2 0,-335.55 0,-335.55 0,-329.55 6,-323.55 12,-323.55"/>
<text xml:space="preserve" text-anchor="start" x="40.42" y="-407.15" font-family="Arial BoldMT" font-size="11.00">ProcessRun</text>
<polyline fill="none" stroke="black" points="0,-402 144.08,-402"/>
<text xml:space="preserve" text-anchor="start" x="7.04" y="-387.9" font-family="ArialMT" font-size="10.00">error </text>
<text xml:space="preserve" text-anchor="start" x="29.54" y="-387.9" font-family="Arial ItalicMT" font-size="10.00" fill="#999999">text</text>
<text xml:space="preserve" text-anchor="start" x="7.04" y="-374.65" font-family="ArialMT" font-size="10.00">finished_at </text>
<text xml:space="preserve" text-anchor="start" x="57.29" y="-374.65" font-family="Arial ItalicMT" font-size="10.00" fill="#999999">datetime (6,0)</text>
<text xml:space="preserve" text-anchor="start" x="7.04" y="-361.4" font-family="ArialMT" font-size="10.00">progress_persisted </text>
<text xml:space="preserve" text-anchor="start" x="92.54" y="-361.4" font-family="Arial ItalicMT" font-size="10.00" fill="#999999">jsonb ∗</text>
<text xml:space="preserve" text-anchor="start" x="7.04" y="-346.65" font-family="ArialMT" font-size="10.00">started_at </text>
<text xml:space="preserve" text-anchor="start" x="53.54" y="-346.65" font-family="Arial ItalicMT" font-size="10.00" fill="#999999">datetime (6,0)</text>
<text xml:space="preserve" text-anchor="start" x="7.04" y="-333.4" font-family="ArialMT" font-size="10.00">status </text>
<text xml:space="preserve" text-anchor="start" x="37.04" y="-333.4" font-family="Arial ItalicMT" font-size="10.00" fill="#999999">string ∗</text>
</g>
<!-- m_LexemeProcessor&#45;&gt;m_ProcessRun -->
<g id="edge9" class="edge">
<title>m_LexemeProcessor&#45;&gt;m_ProcessRun</title>
<path fill="none" stroke="black" d="M72.04,-471.9C72.04,-458.87 72.04,-445.02 72.04,-431.95"/>
<polygon fill="black" stroke="black" points="75.19,-432.18 72.04,-423.18 68.89,-432.18 75.19,-432.18"/>
</g>
<!-- m_LexicalPattern -->
<g id="node4" class="node">
<title>m_LexicalPattern</title>
<path fill="none" stroke="black" d="M301,-480.32C301,-480.32 421.08,-480.32 421.08,-480.32 427.08,-480.32 433.08,-486.32 433.08,-492.32 433.08,-492.32 433.08,-568.98 433.08,-568.98 433.08,-574.98 427.08,-580.98 421.08,-580.98 421.08,-580.98 301,-580.98 301,-580.98 295,-580.98 289,-574.98 289,-568.98 289,-568.98 289,-492.32 289,-492.32 289,-486.32 295,-480.32 301,-480.32"/>
<text xml:space="preserve" text-anchor="start" x="324.92" y="-566.92" font-family="Arial BoldMT" font-size="11.00">LexicalPattern</text>
<polyline fill="none" stroke="black" points="289,-561.77 433.08,-561.77"/>
<text xml:space="preserve" text-anchor="start" x="296.04" y="-547.67" font-family="ArialMT" font-size="10.00">enabled </text>
<text xml:space="preserve" text-anchor="start" x="332.79" y="-547.67" font-family="Arial ItalicMT" font-size="10.00" fill="#999999">boolean</text>
<text xml:space="preserve" text-anchor="start" x="296.04" y="-534.42" font-family="ArialMT" font-size="10.00">language </text>
<text xml:space="preserve" text-anchor="start" x="338.04" y="-534.42" font-family="Arial ItalicMT" font-size="10.00" fill="#999999">string ∗</text>
<text xml:space="preserve" text-anchor="start" x="296.04" y="-519.67" font-family="ArialMT" font-size="10.00">name </text>
<text xml:space="preserve" text-anchor="start" x="323.04" y="-519.67" font-family="Arial ItalicMT" font-size="10.00" fill="#999999">string ∗</text>
<text xml:space="preserve" text-anchor="start" x="296.04" y="-504.92" font-family="ArialMT" font-size="10.00">pattern </text>
<text xml:space="preserve" text-anchor="start" x="329.04" y="-504.92" font-family="Arial ItalicMT" font-size="10.00" fill="#999999">text ∗</text>
<text xml:space="preserve" text-anchor="start" x="296.04" y="-490.17" font-family="ArialMT" font-size="10.00">scan_mode </text>
<text xml:space="preserve" text-anchor="start" x="349.29" y="-490.17" font-family="Arial ItalicMT" font-size="10.00" fill="#999999">string ∗</text>
</g>
<!-- m_LexicalPattern&#45;&gt;m_Occurrence -->
<g id="edge13" class="edge">
<title>m_LexicalPattern&#45;&gt;m_Occurrence</title>
<path fill="none" stroke="black" d="M365.88,-479.88C370.65,-434.99 378.85,-367.28 390.04,-309.05 391.66,-300.63 393.54,-291.89 395.54,-283.19"/>
<polygon fill="black" stroke="black" points="398.59,-283.97 397.59,-274.49 392.46,-282.53 398.59,-283.97"/>
</g>
<!-- m_ScanRun -->
<g id="node11" class="node">
<title>m_ScanRun</title>
<path fill="none" stroke="black" d="M417,-309.55C417,-309.55 537.08,-309.55 537.08,-309.55 543.08,-309.55 549.08,-315.55 549.08,-321.55 549.08,-321.55 549.08,-423.2 549.08,-423.2 549.08,-429.2 543.08,-435.2 537.08,-435.2 537.08,-435.2 417,-435.2 417,-435.2 411,-435.2 405,-429.2 405,-423.2 405,-423.2 405,-321.55 405,-321.55 405,-315.55 411,-309.55 417,-309.55"/>
<text xml:space="preserve" text-anchor="start" x="452.54" y="-421.15" font-family="Arial BoldMT" font-size="11.00">ScanRun</text>
<polyline fill="none" stroke="black" points="405,-416 549.08,-416"/>
<text xml:space="preserve" text-anchor="start" x="412.04" y="-401.9" font-family="ArialMT" font-size="10.00">error </text>
<text xml:space="preserve" text-anchor="start" x="434.54" y="-401.9" font-family="Arial ItalicMT" font-size="10.00" fill="#999999">text</text>
<text xml:space="preserve" text-anchor="start" x="412.04" y="-388.65" font-family="ArialMT" font-size="10.00">finished_at </text>
<text xml:space="preserve" text-anchor="start" x="462.29" y="-388.65" font-family="Arial ItalicMT" font-size="10.00" fill="#999999">datetime (6,0)</text>
<text xml:space="preserve" text-anchor="start" x="412.04" y="-375.4" font-family="ArialMT" font-size="10.00">notes </text>
<text xml:space="preserve" text-anchor="start" x="439.04" y="-375.4" font-family="Arial ItalicMT" font-size="10.00" fill="#999999">text</text>
<text xml:space="preserve" text-anchor="start" x="412.04" y="-362.15" font-family="ArialMT" font-size="10.00">pattern_snapshot </text>
<text xml:space="preserve" text-anchor="start" x="490.04" y="-362.15" font-family="Arial ItalicMT" font-size="10.00" fill="#999999">jsonb ∗</text>
<text xml:space="preserve" text-anchor="start" x="412.04" y="-347.4" font-family="ArialMT" font-size="10.00">progress_persisted </text>
<text xml:space="preserve" text-anchor="start" x="497.54" y="-347.4" font-family="Arial ItalicMT" font-size="10.00" fill="#999999">jsonb ∗</text>
<text xml:space="preserve" text-anchor="start" x="412.04" y="-332.65" font-family="ArialMT" font-size="10.00">started_at </text>
<text xml:space="preserve" text-anchor="start" x="458.54" y="-332.65" font-family="Arial ItalicMT" font-size="10.00" fill="#999999">datetime (6,0)</text>
<text xml:space="preserve" text-anchor="start" x="412.04" y="-319.4" font-family="ArialMT" font-size="10.00">status </text>
<text xml:space="preserve" text-anchor="start" x="442.04" y="-319.4" font-family="Arial ItalicMT" font-size="10.00" fill="#999999">string ∗</text>
</g>
<!-- m_LexicalPattern&#45;&gt;m_ScanRun -->
<g id="edge3" class="edge">
<title>m_LexicalPattern&#45;&gt;m_ScanRun</title>
<path fill="none" stroke="black" d="M397.74,-480.2C406.32,-468.65 415.61,-456.13 424.72,-443.86"/>
<polygon fill="black" stroke="black" points="427.25,-445.74 430.08,-436.63 422.19,-441.98 427.25,-445.74"/>
</g>
<!-- m_OccurrenceReview -->
<g id="node6" class="node">
<title>m_OccurrenceReview</title>
<path fill="none" stroke="black" d="M358,-0.5C358,-0.5 478.08,-0.5 478.08,-0.5 484.08,-0.5 490.08,-6.5 490.08,-12.5 490.08,-12.5 490.08,-74.4 490.08,-74.4 490.08,-80.4 484.08,-86.4 478.08,-86.4 478.08,-86.4 358,-86.4 358,-86.4 352,-86.4 346,-80.4 346,-74.4 346,-74.4 346,-12.5 346,-12.5 346,-6.5 352,-0.5 358,-0.5"/>
<text xml:space="preserve" text-anchor="start" x="370.29" y="-72.35" font-family="Arial BoldMT" font-size="11.00">OccurrenceReview</text>
<polyline fill="none" stroke="black" points="346,-67.2 490.08,-67.2"/>
<text xml:space="preserve" text-anchor="start" x="353.04" y="-53.1" font-family="ArialMT" font-size="10.00">apply_status </text>
<text xml:space="preserve" text-anchor="start" x="411.54" y="-53.1" font-family="Arial ItalicMT" font-size="10.00" fill="#999999">string ∗</text>
<text xml:space="preserve" text-anchor="start" x="353.04" y="-38.35" font-family="ArialMT" font-size="10.00">metadata </text>
<text xml:space="preserve" text-anchor="start" x="396.54" y="-38.35" font-family="Arial ItalicMT" font-size="10.00" fill="#999999">jsonb ∗</text>
<text xml:space="preserve" text-anchor="start" x="353.04" y="-23.6" font-family="ArialMT" font-size="10.00">rendered_code </text>
<text xml:space="preserve" text-anchor="start" x="419.79" y="-23.6" font-family="Arial ItalicMT" font-size="10.00" fill="#999999">text</text>
<text xml:space="preserve" text-anchor="start" x="353.04" y="-10.35" font-family="ArialMT" font-size="10.00">status </text>
<text xml:space="preserve" text-anchor="start" x="383.04" y="-10.35" font-family="Arial ItalicMT" font-size="10.00" fill="#999999">string ∗</text>
</g>
<!-- m_Occurrence&#45;&gt;m_OccurrenceReview -->
<g id="edge11" class="edge">
<title>m_Occurrence&#45;&gt;m_OccurrenceReview</title>
<path fill="none" stroke="black" d="M418.04,-122.95C418.04,-110.5 418.04,-97.97 418.04,-86.69"/>
</g>
<!-- m_ProcessRun&#45;&gt;m_LexemeProcessResult -->
<g id="edge10" class="edge">
<title>m_ProcessRun&#45;&gt;m_LexemeProcessResult</title>
<path fill="none" stroke="black" d="M104.07,-323.35C122.5,-295.72 145.31,-261.54 162.34,-236"/>
<polygon fill="black" stroke="black" points="164.89,-237.85 167.27,-228.61 159.65,-234.35 164.89,-237.85"/>
</g>
<!-- m_Repository -->
<g id="node8" class="node">
<title>m_Repository</title>
<path fill="none" stroke="black" d="M532,-626.1C532,-626.1 652.08,-626.1 652.08,-626.1 658.08,-626.1 664.08,-632.1 664.08,-638.1 664.08,-638.1 664.08,-686.75 664.08,-686.75 664.08,-692.75 658.08,-698.75 652.08,-698.75 652.08,-698.75 532,-698.75 532,-698.75 526,-698.75 520,-692.75 520,-686.75 520,-686.75 520,-638.1 520,-638.1 520,-632.1 526,-626.1 532,-626.1"/>
<text xml:space="preserve" text-anchor="start" x="564.16" y="-684.7" font-family="Arial BoldMT" font-size="11.00">Repository</text>
<polyline fill="none" stroke="black" points="520,-679.55 664.08,-679.55"/>
<text xml:space="preserve" text-anchor="start" x="527.04" y="-665.45" font-family="ArialMT" font-size="10.00">name </text>
<text xml:space="preserve" text-anchor="start" x="554.04" y="-665.45" font-family="Arial ItalicMT" font-size="10.00" fill="#999999">string ∗</text>
<text xml:space="preserve" text-anchor="start" x="527.04" y="-650.7" font-family="ArialMT" font-size="10.00">permitted_ext </text>
<text xml:space="preserve" text-anchor="start" x="589.29" y="-650.7" font-family="Arial ItalicMT" font-size="10.00" fill="#999999">string ∗</text>
<text xml:space="preserve" text-anchor="start" x="527.04" y="-635.95" font-family="ArialMT" font-size="10.00">root_path </text>
<text xml:space="preserve" text-anchor="start" x="570.54" y="-635.95" font-family="Arial ItalicMT" font-size="10.00" fill="#999999">string ∗ U</text>
</g>
<!-- m_RepositoryFile -->
<g id="node9" class="node">
<title>m_RepositoryFile</title>
<path fill="none" stroke="black" d="M590,-344.17C590,-344.17 710.08,-344.17 710.08,-344.17 716.08,-344.17 722.08,-350.17 722.08,-356.17 722.08,-356.17 722.08,-388.57 722.08,-388.57 722.08,-394.57 716.08,-400.57 710.08,-400.57 710.08,-400.57 590,-400.57 590,-400.57 584,-400.57 578,-394.57 578,-388.57 578,-388.57 578,-356.17 578,-356.17 578,-350.17 584,-344.17 590,-344.17"/>
<text xml:space="preserve" text-anchor="start" x="613.54" y="-386.52" font-family="Arial BoldMT" font-size="11.00">RepositoryFile</text>
<polyline fill="none" stroke="black" points="578,-381.37 722.08,-381.37"/>
<text xml:space="preserve" text-anchor="start" x="585.04" y="-367.27" font-family="ArialMT" font-size="10.00">blob_sha </text>
<text xml:space="preserve" text-anchor="start" x="627.04" y="-367.27" font-family="Arial ItalicMT" font-size="10.00" fill="#999999">string</text>
<text xml:space="preserve" text-anchor="start" x="585.04" y="-354.02" font-family="ArialMT" font-size="10.00">path </text>
<text xml:space="preserve" text-anchor="start" x="606.79" y="-354.02" font-family="Arial ItalicMT" font-size="10.00" fill="#999999">string ∗ U</text>
</g>
<!-- m_Repository&#45;&gt;m_RepositoryFile -->
<g id="edge7" class="edge">
<title>m_Repository&#45;&gt;m_RepositoryFile</title>
<path fill="none" stroke="black" d="M608.45,-625.85C613.14,-614.48 617.84,-601.69 621.04,-589.6 637.24,-528.33 644.65,-454.79 647.84,-411.18"/>
<polygon fill="black" stroke="black" points="650.98,-411.47 648.46,-402.28 644.7,-411.04 650.98,-411.47"/>
</g>
<!-- m_RepositorySnapshot -->
<g id="node10" class="node">
<title>m_RepositorySnapshot</title>
<path fill="none" stroke="black" d="M474,-502.45C474,-502.45 594.08,-502.45 594.08,-502.45 600.08,-502.45 606.08,-508.45 606.08,-514.45 606.08,-514.45 606.08,-546.85 606.08,-546.85 606.08,-552.85 600.08,-558.85 594.08,-558.85 594.08,-558.85 474,-558.85 474,-558.85 468,-558.85 462,-552.85 462,-546.85 462,-546.85 462,-514.45 462,-514.45 462,-508.45 468,-502.45 474,-502.45"/>
<text xml:space="preserve" text-anchor="start" x="483.29" y="-544.8" font-family="Arial BoldMT" font-size="11.00">RepositorySnapshot</text>
<polyline fill="none" stroke="black" points="462,-539.65 606.08,-539.65"/>
<text xml:space="preserve" text-anchor="start" x="469.04" y="-525.55" font-family="ArialMT" font-size="10.00">commit_sha </text>
<text xml:space="preserve" text-anchor="start" x="525.29" y="-525.55" font-family="Arial ItalicMT" font-size="10.00" fill="#999999">string ∗</text>
<text xml:space="preserve" text-anchor="start" x="469.04" y="-510.8" font-family="ArialMT" font-size="10.00">metadata </text>
<text xml:space="preserve" text-anchor="start" x="512.54" y="-510.8" font-family="Arial ItalicMT" font-size="10.00" fill="#999999">jsonb</text>
</g>
<!-- m_Repository&#45;&gt;m_RepositorySnapshot -->
<g id="edge6" class="edge">
<title>m_Repository&#45;&gt;m_RepositorySnapshot</title>
<path fill="none" stroke="black" d="M576.04,-625.62C568.12,-607.9 558.56,-586.52 550.57,-568.64"/>
<polygon fill="black" stroke="black" points="553.48,-567.42 546.93,-560.49 547.73,-569.99 553.48,-567.42"/>
</g>
<!-- m_RepositoryFile&#45;&gt;m_Occurrence -->
<g id="edge8" class="edge">
<title>m_RepositoryFile&#45;&gt;m_Occurrence</title>
<path fill="none" stroke="black" d="M612.77,-343.68C582.03,-320.84 537.34,-287.63 498.52,-258.78"/>
<polygon fill="black" stroke="black" points="500.65,-256.44 491.55,-253.6 496.9,-261.5 500.65,-256.44"/>
</g>
<!-- m_ScanRunFile -->
<g id="node12" class="node">
<title>m_ScanRunFile</title>
<path fill="none" stroke="black" d="M560,-169.77C560,-169.77 680.08,-169.77 680.08,-169.77 686.08,-169.77 692.08,-175.77 692.08,-181.77 692.08,-181.77 692.08,-214.17 692.08,-214.17 692.08,-220.17 686.08,-226.17 680.08,-226.17 680.08,-226.17 560,-226.17 560,-226.17 554,-226.17 548,-220.17 548,-214.17 548,-214.17 548,-181.77 548,-181.77 548,-175.77 554,-169.77 560,-169.77"/>
<text xml:space="preserve" text-anchor="start" x="586.91" y="-212.12" font-family="Arial BoldMT" font-size="11.00">ScanRunFile</text>
<polyline fill="none" stroke="black" points="548,-206.97 692.08,-206.97"/>
<text xml:space="preserve" text-anchor="start" x="555.04" y="-192.87" font-family="ArialMT" font-size="10.00">error </text>
<text xml:space="preserve" text-anchor="start" x="577.54" y="-192.87" font-family="Arial ItalicMT" font-size="10.00" fill="#999999">text</text>
<text xml:space="preserve" text-anchor="start" x="555.04" y="-179.62" font-family="ArialMT" font-size="10.00">status </text>
<text xml:space="preserve" text-anchor="start" x="585.04" y="-179.62" font-family="Arial ItalicMT" font-size="10.00" fill="#999999">string ∗</text>
</g>
<!-- m_RepositoryFile&#45;&gt;m_ScanRunFile -->
<g id="edge2" class="edge">
<title>m_RepositoryFile&#45;&gt;m_ScanRunFile</title>
<path fill="none" stroke="black" d="M645.22,-343.68C640.17,-314.65 632.2,-268.86 626.58,-236.57"/>
<polygon fill="black" stroke="black" points="629.75,-236.42 625.11,-228.1 623.55,-237.5 629.75,-236.42"/>
</g>
<!-- m_RepositorySnapshot&#45;&gt;m_ScanRun -->
<g id="edge4" class="edge">
<title>m_RepositorySnapshot&#45;&gt;m_ScanRun</title>
<path fill="none" stroke="black" d="M523.98,-502.07C518.21,-486.26 510.68,-465.6 503.34,-445.48"/>
<polygon fill="black" stroke="black" points="506.32,-444.47 500.28,-437.1 500.41,-446.63 506.32,-444.47"/>
</g>
<!-- m_ScanRun&#45;&gt;m_Occurrence -->
<g id="edge5" class="edge">
<title>m_ScanRun&#45;&gt;m_Occurrence</title>
<path fill="none" stroke="black" d="M455.74,-309.13C452.78,-300.49 449.71,-291.5 446.64,-282.55"/>
<polygon fill="black" stroke="black" points="449.71,-281.8 443.82,-274.3 443.75,-283.84 449.71,-281.8"/>
</g>
<!-- m_ScanRun&#45;&gt;m_ScanRunFile -->
<g id="edge1" class="edge">
<title>m_ScanRun&#45;&gt;m_ScanRunFile</title>
<path fill="none" stroke="black" d="M528.67,-309.13C549.52,-283.99 572.83,-255.89 590.68,-234.37"/>
<polygon fill="black" stroke="black" points="592.96,-236.56 596.28,-227.62 588.11,-232.54 592.96,-236.56"/>
</g>
<!-- m_Setting -->
<g id="node13" class="node">
<title>m_Setting</title>
<path fill="none" stroke="black" d="M705,-633.47C705,-633.47 825.08,-633.47 825.08,-633.47 831.08,-633.47 837.08,-639.47 837.08,-645.47 837.08,-645.47 837.08,-679.38 837.08,-679.38 837.08,-685.38 831.08,-691.38 825.08,-691.38 825.08,-691.38 705,-691.38 705,-691.38 699,-691.38 693,-685.38 693,-679.38 693,-679.38 693,-645.47 693,-645.47 693,-639.47 699,-633.47 705,-633.47"/>
<text xml:space="preserve" text-anchor="start" x="746.16" y="-677.32" font-family="Arial BoldMT" font-size="11.00">Setting</text>
<polyline fill="none" stroke="black" points="693,-672.17 837.08,-672.17"/>
<text xml:space="preserve" text-anchor="start" x="700.04" y="-658.07" font-family="ArialMT" font-size="10.00">key </text>
<text xml:space="preserve" text-anchor="start" x="718.79" y="-658.07" font-family="Arial ItalicMT" font-size="10.00" fill="#999999">string ∗ U</text>
<text xml:space="preserve" text-anchor="start" x="700.04" y="-643.32" font-family="ArialMT" font-size="10.00">value </text>
<text xml:space="preserve" text-anchor="start" x="726.29" y="-643.32" font-family="Arial ItalicMT" font-size="10.00" fill="#999999">text ∗</text>
</g>
</g>
</svg>
